<?xml version="1.0" standalone="no"?>
<!DOCTYPE svg PUBLIC "-//W3C//DTD SVG 20010904//EN"
 "http://www.w3.org/TR/2001/REC-SVG-20010904/DTD/svg10.dtd">
<svg version="1.0" xmlns="http://www.w3.org/2000/svg"
 width="16.000000pt" height="16.000000pt" viewBox="0 0 16.000000 16.000000"
 preserveAspectRatio="xMidYMid meet">
<metadata>
Created by potrace 1.11, written by Peter Selinger 2001-2013
</metadata>
<g transform="translate(0.000000,16.000000) scale(0.006154,-0.006154)"
fill="#000000" stroke="none">
<path d="M907 2571 c-14 -29 -14 -29 14 -24 25 4 29 1 29 -19 0 -13 6 -32 14
-43 7 -11 16 -34 20 -50 5 -25 1 -36 -24 -64 -29 -31 -33 -33 -78 -26 -26 4
-51 10 -57 15 -13 10 -72 21 -107 21 -16 0 -28 4 -28 8 0 5 -14 14 -31 21 -22
10 -33 10 -41 2 -26 -26 -12 -70 24 -76 7 -1 24 -8 38 -16 14 -7 37 -13 53
-12 15 1 27 -2 27 -6 0 -11 104 -52 130 -52 10 0 20 -4 22 -10 2 -5 18 -11 36
-13 40 -5 77 -60 58 -89 -16 -26 -1 -32 28 -11 14 10 26 28 26 41 0 13 6 22
16 22 10 0 14 -6 11 -14 -6 -15 12 -26 44 -26 10 0 19 -7 19 -15 0 -8 -3 -15
-7 -15 -5 0 -21 -11 -37 -25 -16 -14 -37 -25 -47 -25 -64 0 -99 -51 -92 -134
l5 -59 -26 7 c-21 5 -28 2 -37 -18 -13 -27 -4 -96 11 -96 6 0 10 -12 10 -26 0
-21 -4 -25 -22 -22 -16 2 -23 10 -24 25 -1 24 -49 103 -62 102 -4 0 -15 -4
-25 -8 -17 -6 -17 -8 2 -33 12 -14 21 -40 21 -57 0 -41 18 -78 42 -84 16 -5
18 -11 13 -39 -9 -43 -10 -76 -3 -115 4 -20 1 -39 -9 -52 -8 -12 -16 -29 -18
-39 -2 -9 -6 -29 -10 -44 -5 -18 -3 -28 4 -28 6 0 11 -5 11 -11 0 -13 41 -48
56 -49 6 0 17 7 24 15 7 9 18 14 23 12 18 -6 16 -39 -3 -59 -19 -21 -16 -58 5
-58 22 0 46 -31 40 -51 -3 -10 -1 -28 5 -40 7 -11 14 -35 16 -53 2 -17 9 -56
14 -86 18 -91 19 -143 5 -166 -8 -13 -12 -39 -9 -67 3 -35 1 -47 -9 -47 -8 0
-21 -8 -31 -18 -15 -17 -15 -22 -1 -55 8 -20 15 -46 15 -57 0 -27 20 -47 53
-56 15 -3 26 -9 25 -13 -1 -3 2 -49 6 -102 9 -105 0 -139 -35 -139 -24 0 -27
-8 -32 -80 -3 -49 -1 -58 24 -82 27 -27 69 -38 69 -18 0 5 11 12 25 16 14 3
25 12 25 20 0 15 19 18 35 6 15 -11 45 -68 45 -86 0 -12 11 -16 46 -16 38 0
51 5 71 27 40 46 40 48 26 62 -12 11 -17 10 -33 -4 -27 -24 -64 -16 -68 15 -2
14 -8 29 -13 34 -15 16 -11 56 6 56 8 0 15 -4 15 -10 0 -14 37 -13 46 1 3 6
22 9 40 7 19 -2 34 0 34 4 0 4 9 8 19 8 15 0 21 -10 26 -42 7 -44 29 -78 49
-78 7 0 19 -8 28 -17 35 -37 49 -43 101 -43 64 0 84 17 89 75 2 34 7 40 26 41
36 2 48 19 34 49 -11 25 -13 25 -34 11 -30 -21 -68 -20 -84 2 -12 15 -15 15
-24 2 -9 -13 -13 -12 -26 5 -13 17 -15 39 -10 134 5 101 8 115 27 129 17 11
20 21 15 47 -5 22 -2 36 9 45 18 15 20 49 2 56 -15 5 -20 44 -6 44 5 0 9 8 9
18 0 11 9 29 20 42 23 27 24 34 8 52 -50 54 -51 55 -33 81 14 21 14 29 3 46
-7 12 -20 21 -29 21 -13 0 -17 9 -17 38 0 20 4 42 9 48 5 6 9 38 9 70 -2 89
10 165 26 171 19 7 18 53 -1 53 -23 0 -18 30 11 57 20 18 26 34 27 70 1 29 -3
48 -10 50 -15 5 -17 39 -3 48 16 10 11 33 -9 40 -29 9 -52 -5 -58 -36 -14 -70
-66 -5 -78 99 -6 43 -4 52 8 52 9 0 17 -4 19 -9 7 -20 56 -20 74 0 9 10 25 19
36 19 10 0 18 7 18 15 0 8 4 15 10 15 5 0 16 14 25 30 22 42 52 40 61 -5 4
-21 13 -37 24 -40 20 -6 60 21 60 41 0 17 71 84 97 90 18 5 23 13 23 36 0 17
-4 27 -10 23 -6 -3 -10 -1 -10 4 0 6 -6 11 -13 11 -12 0 -51 35 -98 87 -36 39
-68 63 -83 63 -9 0 -33 9 -53 20 -21 11 -43 20 -50 20 -7 0 -13 4 -13 9 0 4
-19 11 -43 14 -24 3 -56 13 -72 21 -17 9 -37 16 -46 16 -8 0 -33 9 -54 19 -22
10 -45 17 -52 14 -7 -3 -13 2 -13 11 0 9 4 16 8 16 5 0 17 16 28 35 18 34 18
36 -1 87 -18 51 -33 74 -82 123 -13 12 -23 27 -23 34 0 16 -35 14 -50 -4 -10
-13 -16 -11 -44 10 -18 14 -41 25 -51 25 -19 0 -95 -73 -95 -91 0 -5 -7 -9
-15 -9 -8 0 -15 5 -15 12 0 20 -50 118 -60 118 -6 0 -10 7 -10 15 0 28 -47 18
-63 -14z m449 -1851 c8 -7 14 -21 14 -31 0 -11 4 -19 9 -19 21 0 44 -57 47
-118 2 -35 8 -70 14 -77 6 -7 12 -39 14 -71 2 -33 7 -66 11 -75 3 -9 5 -34 3
-55 -3 -36 -6 -39 -36 -42 -24 -2 -37 2 -50 19 l-18 21 -43 -21 c-45 -24 -62
-24 -67 0 -21 95 -26 116 -34 131 -16 28 -12 51 20 138 17 45 27 86 24 92 -3
5 9 31 27 56 19 26 32 47 30 47 -2 0 0 18 5 40 l8 40 4 -32 c2 -17 10 -37 18
-43z"/>
<path d="M1690 271 c0 -10 7 -24 15 -31 21 -18 53 14 35 35 -18 22 -50 19 -50
-4z"/>
<path d="M1780 274 c0 -8 5 -12 10 -9 6 3 10 10 10 16 0 5 -4 9 -10 9 -5 0
-10 -7 -10 -16z"/>
</g>
</svg>
