<?xml version="1.0" encoding="utf-8"?>
<!-- Generator: Adobe Illustrator 21.0.2, SVG Export Plug-In . SVG Version: 6.00 Build 0)  -->
<svg version="1.1" id="Layer_1" xmlns="http://www.w3.org/2000/svg" xmlns:xlink="http://www.w3.org/1999/xlink" x="0px" y="0px"
	 width="32px" height="32px" viewBox="0 0 32 32" enable-background="new 0 0 32 32" xml:space="preserve">
<path fill-rule="evenodd" clip-rule="evenodd" fill="#818181" d="M16,31.5c-8.5,0-15.4-6.9-15.4-15.4S7.5,0.8,16,0.8
	c8.5,0,15.4,6.9,15.4,15.4S24.5,31.5,16,31.5z M23.6,15.5c0-0.7-0.5-1.2-1.2-1.2h-4.7V9.6c0-0.7-0.5-1.2-1.2-1.2h-1.2
	c-0.7,0-1.2,0.5-1.2,1.2v4.7H9.4c-0.7,0-1.2,0.5-1.2,1.2v1.2c0,0.7,0.5,1.2,1.2,1.2h4.7v4.7c0,0.7,0.5,1.2,1.2,1.2h1.2
	c0.7,0,1.2-0.5,1.2-1.2v-4.7h4.7c0.7,0,1.2-0.5,1.2-1.2V15.5z"/>
</svg>
