<?xml version="1.0" encoding="utf-8"?>
<!-- Generator: Adobe Illustrator 21.0.2, SVG Export Plug-In . SVG Version: 6.00 Build 0)  -->
<svg version="1.1" id="Layer_1" xmlns="http://www.w3.org/2000/svg" xmlns:xlink="http://www.w3.org/1999/xlink" x="0px" y="0px"
	 width="32px" height="32px" viewBox="0 0 32 32" enable-background="new 0 0 32 32" xml:space="preserve">
<path fill="#818181" d="M24.7,31.4c0.7,0,6.9-4.5,6.9-5.1c0-0.6-7-4.9-7.6-4.9c-0.6,0-2.6,2.4-3.2,2.7c-0.5,0.3-4,0.2-7.7-3.6
	C9.3,16.7,8,12.4,8,11.7c0-0.7,3.2-2.8,3.3-3.3c0.1-0.5-4.2-7.8-4.9-7.8c-0.7,0-5.9,6.3-5.9,6.8c0,0.5,0.5,7.3,9.1,15.8
	C18.2,31.8,24,31.3,24.7,31.4z"/>
</svg>
