<?xml version="1.0" encoding="utf-8"?>
<!-- Generator: Adobe Illustrator 21.0.2, SVG Export Plug-In . SVG Version: 6.00 Build 0)  -->
<svg version="1.1" id="Layer_1" xmlns="http://www.w3.org/2000/svg" xmlns:xlink="http://www.w3.org/1999/xlink" x="0px" y="0px"
	 width="32px" height="32px" viewBox="0 0 32 32" enable-background="new 0 0 32 32" xml:space="preserve">
<path fill="#818181" d="M16,0.3C9.7,0.3,4.6,5.7,4.6,11.5c0,3.1,1.6,4.5,4.6,9.8c2.6,4.6,4.8,8.8,4.8,8.8c1.1,2.1,2.9,2.1,4,0
	c0,0,2.2-4.2,4.9-8.8c3-5.3,4.6-6.7,4.6-9.8C27.4,5.7,22.3,0.3,16,0.3z M16,18.2c-3.8,0-6.8-3-6.8-6.7s3.1-6.7,6.8-6.7
	c3.8,0,6.8,3,6.8,6.7S19.8,18.2,16,18.2z"/>
</svg>
