<?xml version="1.0" encoding="utf-8"?>
<!-- Generator: Adobe Illustrator 21.0.2, SVG Export Plug-In . SVG Version: 6.00 Build 0)  -->
<svg version="1.1" id="Layer_1" xmlns="http://www.w3.org/2000/svg" xmlns:xlink="http://www.w3.org/1999/xlink" x="0px" y="0px"
	 width="32px" height="32px" viewBox="0 0 32 32" enable-background="new 0 0 32 32" xml:space="preserve">
<g>
	<g>
		<path fill="#818181" d="M24.7,3.1c-2.5-1.7-5.5-2.7-8.7-2.7c-3.2,0-6.1,1-8.6,2.6c1.8,2.3,5.2,7.6,3.4,12.6
			c-2.6,7-3,11.8-1.2,14.4c0,0.1,0.1,0.1,0.1,0.2c1.9,0.9,4.1,1.3,6.3,1.3c2.4,0,4.6-0.5,6.6-1.5c1.8-2.6,1.4-7.4-1.2-14.4
			C19.6,10.7,22.9,5.5,24.7,3.1z M8.8,14.9c1.5-4-1.5-8.6-3.1-10.6c-3.2,2.8-5.3,7-5.3,11.7c0,5.1,2.4,9.6,6.2,12.4
			C5.9,25.2,6.6,20.7,8.8,14.9z M26.4,4.4c-1.6,2-4.4,6.6-3,10.5c2.1,5.7,2.8,10.1,2.2,13.3c3.6-2.8,5.9-7.3,5.9-12.2
			C31.6,11.4,29.6,7.3,26.4,4.4z"/>
	</g>
</g>
</svg>
